<?xml version="1.0" standalone="no"?>
<!DOCTYPE svg PUBLIC "-//W3C//DTD SVG 20010904//EN"
 "http://www.w3.org/TR/2001/REC-SVG-20010904/DTD/svg10.dtd">
<svg version="1.0" xmlns="http://www.w3.org/2000/svg"
 width="350.000000pt" height="280.000000pt" viewBox="0 0 350.000000 280.000000"
 preserveAspectRatio="xMidYMid meet">

<g transform="translate(0.000000,280.000000) scale(0.100000,-0.100000)"
fill="#000000" stroke="none">
<path d="M0 2402 l1 -399 97 -16 c53 -9 120 -19 147 -22 48 -6 131 -21 169
-32 13 -4 15 -8 6 -16 -14 -15 -72 -16 -83 -2 -4 6 -6 -1 -5 -15 2 -14 9 -24
16 -23 6 2 12 -2 12 -7 0 -6 -10 -10 -22 -10 -19 0 -20 -2 -8 -10 10 -6 11
-10 3 -10 -29 0 -11 -28 22 -34 l35 -7 -2 -67 -1 -67 -7 65 c-5 58 -6 61 -10
25 -4 -31 -10 -41 -30 -46 l-25 -7 25 -2 c24 -2 24 -2 -5 -11 -20 -6 -37 -5
-52 2 -12 7 -40 9 -62 6 -22 -3 -41 -1 -43 4 -2 5 -42 6 -91 2 l-88 -6 1 -444
c1 -261 5 -443 10 -443 6 0 6 -10 0 -25 -5 -14 -6 -25 -1 -25 5 0 15 24 22 52
7 30 15 45 17 35 4 -18 5 -17 18 2 9 12 21 21 29 21 8 0 19 8 24 18 9 15 10
15 11 -5 0 -13 -4 -23 -10 -23 -5 0 -10 -4 -10 -9 0 -6 12 -9 27 -8 23 2 28
-2 30 -23 2 -23 2 -23 -6 -5 -10 20 -15 9 -12 -25 1 -12 -1 -11 -12 3 -8 9
-22 17 -32 17 -10 0 -15 -3 -12 -7 4 -3 1 -13 -6 -21 -9 -13 -9 -14 0 -8 7 4
13 3 13 -3 0 -6 -12 -14 -28 -18 -36 -9 -39 -10 -57 -12 -13 -1 -15 -49 -15
-371 l0 -370 1750 0 1750 0 0 499 0 499 -67 9 -68 10 68 2 67 1 0 890 0 890
-1750 0 -1750 0 0 -398z m625 378 c-3 -5 -10 -10 -16 -10 -5 0 -9 5 -9 10 0 6
7 10 16 10 8 0 12 -4 9 -10z m162 -11 c24 -11 43 -22 43 -24 0 -4 -103 22
-130 33 -24 10 -24 11 9 11 19 1 54 -8 78 -20z m1241 14 c-10 -2 -26 -2 -35 0
-10 3 -2 5 17 5 19 0 27 -2 18 -5z m1102 -3 c-18 -12 -58 -12 -85 0 -14 6 -3
9 40 9 42 1 56 -2 45 -9z m-2462 -12 c-6 -18 -28 -21 -28 -4 0 9 7 16 16 16 9
0 14 -5 12 -12z m1400 -19 c13 -5 20 -13 17 -19 -4 -6 6 -10 23 -10 26 0 29
-3 25 -24 -4 -22 -2 -24 18 -19 18 3 20 2 10 -5 -11 -8 -10 -12 5 -20 16 -9
16 -12 4 -16 -8 -3 -27 -10 -42 -15 -20 -7 -29 -6 -38 4 -6 8 -17 13 -23 11
-7 -1 -9 -1 -5 1 4 2 4 11 1 19 -5 13 -7 13 -15 2 -7 -9 -8 -7 -4 7 6 23 -16
57 -34 53 -7 -2 -15 4 -17 12 -4 13 -3 13 6 0 9 -13 11 -13 11 1 0 8 -6 21
-12 28 -11 10 -7 11 17 5 17 -4 40 -11 53 -15z m-1360 -1 c-6 -18 -28 -21 -28
-4 0 9 7 16 16 16 9 0 14 -5 12 -12z m37 -16 c0 -18 -20 -15 -23 4 -3 10 1 15
10 12 7 -3 13 -10 13 -16z m61 -39 c-10 -10 -19 5 -10 18 6 11 8 11 12 0 2 -7
1 -15 -2 -18z m334 -18 c-11 -20 -9 -26 9 -46 11 -12 24 -19 28 -16 3 4 1 7
-5 7 -7 0 -12 4 -12 10 0 5 7 7 15 4 8 -4 15 -15 15 -25 0 -16 4 -18 18 -10
11 6 20 5 27 -3 14 -16 17 -56 4 -56 -8 0 -7 -5 1 -15 17 -21 7 -19 -37 7 -21
12 -50 28 -65 35 -16 8 -28 21 -28 29 0 11 10 8 40 -11 22 -14 44 -25 50 -25
5 0 10 -6 10 -12 0 -9 4 -8 10 2 5 8 10 22 10 30 0 12 -2 13 -9 1 -7 -11 -16
-9 -52 10 -24 14 -44 33 -45 44 -4 25 18 95 24 77 2 -8 -1 -24 -8 -37z m-215
7 c-8 -8 -25 10 -19 20 4 6 9 5 15 -3 4 -7 6 -15 4 -17z m-75 9 c0 -6 -4 -13
-10 -16 -5 -3 -10 1 -10 9 0 9 5 16 10 16 6 0 10 -4 10 -9z m40 -21 c0 -5 -4
-10 -10 -10 -5 0 -10 5 -10 10 0 6 5 10 10 10 6 0 10 -4 10 -10z m40 -20 c0
-5 -4 -10 -9 -10 -6 0 -13 5 -16 10 -3 6 1 10 9 10 9 0 16 -4 16 -10z m265 -8
c-3 -3 -11 0 -18 7 -9 10 -8 11 6 5 10 -3 15 -9 12 -12z m41 -8 c-4 -9 -9 -15
-11 -12 -3 3 -3 13 1 22 4 9 9 15 11 12 3 -3 3 -13 -1 -22z m-132 -18 c-9 -29
-13 -31 -26 -18 -9 9 -9 12 0 12 6 0 9 6 6 13 -3 8 2 14 11 14 11 0 13 -6 9
-21z m-109 4 c3 -5 1 -10 -4 -10 -6 0 -11 5 -11 10 0 6 2 10 4 10 3 0 8 -4 11
-10z m40 -20 c3 -5 -1 -10 -9 -10 -9 0 -16 5 -16 10 0 6 4 10 9 10 6 0 13 -4
16 -10z m35 -20 c0 -5 -4 -10 -10 -10 -5 0 -10 5 -10 10 0 6 5 10 10 10 6 0
10 -4 10 -10z m235 -10 c16 -18 16 -20 2 -20 -9 0 -21 9 -27 20 -6 11 -7 20
-2 20 5 0 17 -9 27 -20z m99 -30 c13 0 16 5 10 22 -6 20 -5 21 9 9 9 -7 24
-11 32 -7 30 11 14 -3 -21 -20 -32 -16 -40 -16 -62 -3 -14 8 -27 21 -30 29 -3
10 4 7 20 -7 13 -13 32 -23 42 -23z m-1320 -34 c-10 -31 -19 -54 -22 -52 -2 2
4 29 14 60 10 31 19 54 22 52 2 -2 -4 -29 -14 -60z m930 34 c36 -16 66 -32 66
-34 0 -6 -94 34 -127 53 -34 20 -5 11 61 -19z m86 20 c0 -5 -4 -10 -10 -10 -5
0 -10 5 -10 10 0 6 5 10 10 10 6 0 10 -4 10 -10z m-892 -68 c-17 -34 -33 -60
-35 -58 -2 2 10 32 27 66 17 34 33 60 35 58 2 -2 -10 -32 -27 -66z m115 -16
c-40 -80 -40 -81 -61 -68 -10 7 -6 23 18 73 28 61 41 70 20 15 -15 -39 -4 -31
26 19 41 70 39 47 -3 -39z m89 -10 c-23 -47 -45 -86 -51 -86 -6 0 -7 8 -4 18
14 37 86 163 90 158 3 -2 -13 -43 -35 -90z m722 73 c-3 -5 -10 -7 -15 -3 -5 3
-7 10 -3 15 3 5 10 7 15 3 5 -3 7 -10 3 -15z m31 -8 c3 -5 1 -12 -5 -16 -5 -3
-10 1 -10 9 0 18 6 21 15 7z m-972 -16 c-3 -9 -8 -14 -10 -11 -3 3 -2 9 2 15
9 16 15 13 8 -4z m1002 -4 c3 -5 1 -12 -5 -16 -5 -3 -10 1 -10 9 0 18 6 21 15
7z m-1151 -16 c4 -10 -1 -15 -15 -15 -17 0 -18 2 -7 15 16 18 15 18 22 0z
m1186 -5 c0 -5 -4 -10 -10 -10 -5 0 -10 5 -10 10 0 6 5 10 10 10 6 0 10 -4 10
-10z m1004 -35 c3 -8 12 -12 21 -9 11 5 14 2 9 -10 -5 -12 0 -16 17 -16 19 0
21 -2 9 -10 -13 -8 -12 -10 3 -10 19 0 23 -15 6 -25 -13 -8 28 -55 48 -55 7 0
13 -4 13 -10 0 -5 8 -18 18 -28 16 -16 28 -17 93 -11 70 6 88 5 78 -6 -12 -11
-143 -23 -160 -14 -10 5 -26 9 -37 9 -23 0 -59 41 -68 77 -4 16 -15 36 -25 46
-11 10 -19 24 -19 31 0 8 -7 19 -15 26 -8 7 -15 16 -15 21 0 15 17 10 24 -6z
m-2114 -5 c0 -5 -2 -10 -4 -10 -3 0 -8 5 -11 10 -3 6 -1 10 4 10 6 0 11 -4 11
-10z m1296 -18 c-3 -5 9 -16 25 -26 17 -10 28 -20 25 -23 -3 -3 -24 9 -48 26
-36 26 -39 31 -19 31 12 0 20 -4 17 -8z m-46 -16 c0 -3 -4 -8 -10 -11 -5 -3
-10 -1 -10 4 0 6 5 11 10 11 6 0 10 -2 10 -4z m17 -28 c-3 -8 -6 -5 -6 6 -1
11 2 17 5 13 3 -3 4 -12 1 -19z m1586 -21 c21 4 22 4 3 -11 -28 -23 -36 -20
-35 12 1 15 3 20 6 11 3 -11 11 -15 26 -12z m-1528 3 c3 -5 1 -10 -4 -10 -6 0
-11 5 -11 10 0 6 2 10 4 10 3 0 8 -4 11 -10z m105 -2 c-9 -11 43 -59 92 -83
35 -18 48 -20 48 -11 0 8 -14 19 -30 26 -17 7 -28 15 -25 18 2 3 0 11 -6 19
-6 7 -8 13 -4 13 14 0 78 -52 117 -94 21 -23 45 -49 54 -58 9 -10 39 -25 65
-33 27 -9 48 -20 46 -25 -1 -5 30 -39 68 -76 39 -37 61 -61 50 -52 -11 9 -62
44 -114 78 -73 48 -96 59 -103 48 -7 -10 -8 -9 -4 4 5 17 -5 26 -130 108 -13
8 -62 39 -109 68 -47 29 -85 54 -85 56 0 2 17 3 38 3 20 -1 35 -5 32 -9z
m-603 -40 c-3 -7 -5 -2 -5 12 0 14 2 19 5 13 2 -7 2 -19 0 -25z m1983 18 c0
-27 -76 -36 -127 -14 -26 12 -24 13 42 18 39 4 73 7 78 8 4 1 7 -4 7 -12z
m-1435 -5 c3 -5 1 -12 -5 -16 -5 -3 -10 1 -10 9 0 18 6 21 15 7z m-782 -28 c4
-2 7 -10 7 -17 0 -11 -8 -10 -35 3 -19 9 -34 19 -35 24 0 7 45 0 63 -10z m295
-50 c-11 -87 -10 -84 -33 -67 -18 14 -18 16 -4 27 9 7 19 30 23 52 7 37 14 55
20 55 1 0 -1 -30 -6 -67z m39 35 c-3 -7 -5 -2 -5 12 0 14 2 19 5 13 2 -7 2
-19 0 -25z m2272 6 c2 -2 -23 -4 -57 -4 -33 0 -64 4 -67 10 -6 9 113 3 124 -6z
m-2572 -16 c-3 -8 -6 -5 -6 6 -1 11 2 17 5 13 3 -3 4 -12 1 -19z m190 -10 c-3
-7 -5 -2 -5 12 0 14 2 19 5 13 2 -7 2 -19 0 -25z m128 -55 c-4 -35 -9 -62 -12
-59 -3 2 -2 38 2 78 5 40 10 67 13 60 2 -8 1 -43 -3 -79z m-275 51 c0 -8 -4
-12 -10 -9 -5 3 -10 10 -10 16 0 5 5 9 10 9 6 0 10 -7 10 -16z m352 -41 c-5
-101 -9 -111 -11 -25 0 45 2 82 7 82 4 0 6 -26 4 -57z m448 47 c0 -5 -5 -10
-11 -10 -5 0 -7 5 -4 10 3 6 8 10 11 10 2 0 4 -4 4 -10z m-1490 -14 c0 -8 -5
-37 -12 -65 -8 -35 -14 -47 -20 -39 -6 8 -7 -1 -3 -22 5 -27 4 -32 -5 -20 -9
12 -10 10 -6 -12 5 -22 3 -26 -9 -21 -9 3 -14 11 -11 18 2 6 14 49 26 93 12
45 26 82 31 82 5 0 9 -6 9 -14z m725 5 c3 -5 1 -12 -5 -16 -5 -3 -10 1 -10 9
0 18 6 21 15 7z m21 -17 c-4 -9 -9 -15 -11 -12 -3 3 -3 13 1 22 4 9 9 15 11
12 3 -3 3 -13 -1 -22z m189 -39 c-3 -31 -9 -55 -11 -52 -3 2 -2 30 2 61 4 31
9 54 12 52 2 -3 1 -30 -3 -61z m-115 -2 c-11 -17 -11 -17 -6 0 3 10 7 26 7 35
1 15 2 15 6 0 2 -10 -1 -25 -7 -35z m-521 -69 c-6 -49 -15 -96 -21 -104 -6
-10 -7 3 -3 40 6 62 27 162 31 157 2 -2 -1 -44 -7 -93z m1435 80 c3 -8 2 -12
-4 -9 -6 3 -10 10 -10 16 0 14 7 11 14 -7z m-149 -49 c11 -9 -2 -4 -30 11 -27
15 -54 32 -60 37 -16 15 68 -29 90 -48z m-1339 -12 c-16 -117 -18 -123 -34
-122 -10 0 -12 2 -7 5 6 2 9 22 9 45 -2 36 22 119 34 119 2 0 1 -21 -2 -47z
m771 -5 c-2 -13 -4 -5 -4 17 -1 22 1 32 4 23 2 -10 2 -28 0 -40z m850 0 c-2
-13 -4 -5 -4 17 -1 22 1 32 4 23 2 -10 2 -28 0 -40z m-734 -12 c-3 -20 -10
-33 -14 -29 -5 5 -3 23 3 41 7 17 13 30 15 29 1 -2 0 -20 -4 -41z m-686 2 c-3
-8 -6 -5 -6 6 -1 11 2 17 5 13 3 -3 4 -12 1 -19z m1237 6 c3 -8 2 -12 -4 -9
-6 3 -10 10 -10 16 0 14 7 11 14 -7z m-466 -34 c-2 -22 0 -40 5 -40 4 0 5 -5
1 -11 -14 -22 -26 9 -19 50 9 53 18 53 13 1z m1179 34 c-3 -3 -12 -4 -19 -1
-8 3 -5 6 6 6 11 1 17 -2 13 -5z m-2230 -54 c-1 -32 -7 -50 -14 -50 -7 0 -13
5 -13 11 0 15 22 89 26 89 2 0 3 -22 1 -50z m933 30 c0 -10 -38 -1 -45 10 -2
4 7 5 20 2 14 -2 25 -8 25 -12z m186 -16 c-4 -14 -9 -24 -12 -21 -3 2 -2 17 2
31 3 15 9 25 11 22 3 -3 2 -17 -1 -32z m385 9 c13 -16 12 -17 -3 -4 -17 13
-22 21 -14 21 2 0 10 -8 17 -17z m-1234 -25 c-3 -7 -5 -2 -5 12 0 14 2 19 5
13 2 -7 2 -19 0 -25z m280 -105 c-2 -27 -3 -5 -3 47 0 52 1 74 3 48 2 -27 2
-69 0 -95z m-127 47 c0 -40 -4 -70 -10 -70 -5 0 -10 15 -10 33 0 37 11 107 16
107 2 0 4 -31 4 -70z m1200 44 c0 -2 -9 0 -20 6 -11 6 -20 13 -20 16 0 2 9 0
20 -6 11 -6 20 -13 20 -16z m-948 -107 c2 -37 0 -67 -4 -67 -5 0 -7 44 -6 98
1 100 5 88 10 -31z m541 70 c-16 -48 -40 -56 -28 -8 6 24 35 65 41 58 2 -1 -4
-24 -13 -50z m-1026 -4 c-3 -10 -5 -4 -5 12 0 17 2 24 5 18 2 -7 2 -21 0 -30z
m70 5 c-3 -7 -5 -2 -5 12 0 14 2 19 5 13 2 -7 2 -19 0 -25z m80 0 c-3 -7 -5
-2 -5 12 0 14 2 19 5 13 2 -7 2 -19 0 -25z m796 7 c19 -5 27 -3 27 6 0 7 3 10
6 6 3 -3 3 -15 -1 -26 -5 -16 -10 -18 -23 -11 -9 6 -30 15 -47 21 -23 8 -26
12 -15 19 8 5 17 5 20 0 3 -5 18 -12 33 -15z m117 -1 c-6 -14 -10 -33 -10 -42
0 -15 2 -15 10 -2 8 12 10 11 10 -7 0 -16 -5 -20 -19 -16 -17 4 -18 9 -9 41
11 39 17 52 23 52 3 0 0 -12 -5 -26z m401 9 c13 -16 12 -17 -3 -4 -10 7 -18
15 -18 17 0 8 8 3 21 -13z m-1284 -60 c-2 -16 -4 -5 -4 22 0 28 2 40 4 28 2
-13 2 -35 0 -50z m1121 12 c2 -2 -17 -3 -42 -3 -41 1 -46 4 -46 25 l0 23 43
-21 c23 -12 43 -23 45 -24z m1260 25 c4 -13 3 -13 -10 -2 -11 9 -18 10 -23 2
-3 -5 -2 -10 4 -10 5 0 16 -7 25 -15 16 -17 11 -48 -8 -42 -6 2 -21 0 -33 -4
-16 -6 -27 -4 -38 7 -20 21 -19 40 5 57 11 8 18 16 15 19 -3 3 9 5 27 4 18 -1
33 -7 36 -16z m-2021 -42 c-2 -13 -4 -5 -4 17 -1 22 1 32 4 23 2 -10 2 -28 0
-40z m2044 29 c-10 -9 -11 -8 -5 6 3 10 9 15 12 12 3 -3 0 -11 -7 -18z m-2284
-34 c-3 -10 -5 -2 -5 17 0 19 2 27 5 18 2 -10 2 -26 0 -35z m120 -30 c-2 -16
-4 -3 -4 27 0 30 2 43 4 28 2 -16 2 -40 0 -55z m2269 43 c3 -7 -5 -32 -16 -55
-17 -32 -28 -41 -47 -41 -25 0 -25 1 -19 52 8 58 29 82 59 66 10 -5 20 -15 23
-22z m-2629 2 c-3 -8 -6 -5 -6 6 -1 11 2 17 5 13 3 -3 4 -12 1 -19z m630 -80
c-2 -18 -4 -6 -4 27 0 33 2 48 4 33 2 -15 2 -42 0 -60z m90 50 c-3 -7 -5 -2
-5 12 0 14 2 19 5 13 2 -7 2 -19 0 -25z m866 7 c3 -16 0 -24 -7 -22 -11 4 -16
25 -9 40 7 12 10 8 16 -18z m-518 -23 c-6 -7 -35 18 -35 31 0 5 9 2 20 -8 11
-10 18 -20 15 -23z m235 8 c-4 -3 -10 -12 -13 -20 -3 -8 -6 0 -6 18 -1 28 1
31 13 20 8 -7 10 -15 6 -18z m1075 -29 c-8 -25 -50 -29 -59 -5 -6 16 -1 29 18
50 16 17 49 -19 41 -45z m-2178 27 c-3 -8 -6 -5 -6 6 -1 11 2 17 5 13 3 -3 4
-12 1 -19z m350 -45 c-2 -16 -4 -5 -4 22 0 28 2 40 4 28 2 -13 2 -35 0 -50z
m550 45 c-3 -8 -6 -5 -6 6 -1 11 2 17 5 13 3 -3 4 -12 1 -19z m-847 -8 c0 -5
-2 -10 -4 -10 -3 0 -8 5 -11 10 -3 6 -1 10 4 10 6 0 11 -4 11 -10z m277 -32
c-3 -7 -5 -2 -5 12 0 14 2 19 5 13 2 -7 2 -19 0 -25z m1963 23 c0 -17 -18 -21
-24 -6 -3 9 0 15 9 15 8 0 15 -4 15 -9z m-2027 -21 c3 -11 1 -20 -4 -20 -5 0
-9 9 -9 20 0 11 2 20 4 20 2 0 6 -9 9 -20z m1993 -6 c8 -30 -6 -47 -32 -42
-35 6 -30 68 5 68 14 0 23 -9 27 -26z m-1609 -81 c-2 -21 -4 -6 -4 32 0 39 2
55 4 38 2 -18 2 -50 0 -70z m920 18 c1 -18 7 -39 15 -48 31 -38 -48 17 -112
77 -14 14 -19 19 -10 13 21 -16 37 -16 46 -1 4 6 3 8 -4 5 -6 -5 -8 0 -5 13 5
20 6 20 37 -3 22 -18 31 -34 33 -56z m0 57 c-3 -8 -6 -5 -6 6 -1 11 2 17 5 13
3 -3 4 -12 1 -19z m-890 -90 c-2 -18 -4 -6 -4 27 0 33 2 48 4 33 2 -15 2 -42
0 -60z m-237 52 c0 -5 -4 -10 -10 -10 -5 0 -10 5 -10 10 0 6 5 10 10 10 6 0
10 -4 10 -10z m-775 -9 c3 -5 1 -12 -5 -16 -5 -3 -10 1 -10 9 0 18 6 21 15 7z
m962 -43 c-2 -13 -4 -5 -4 17 -1 22 1 32 4 23 2 -10 2 -28 0 -40z m623 43 c0
-5 -6 -11 -12 -13 -10 -2 -11 -20 -7 -68 l6 -65 3 65 c3 60 3 62 10 25 6 -39
6 -39 12 -10 3 17 3 -147 1 -364 -2 -217 -5 -399 -6 -405 -2 -11 199 -32 443
-45 105 -5 131 -9 80 -10 -74 -2 -74 -2 -45 -17 96 -48 95 -57 -3 -18 -66 26
-102 26 -41 0 34 -15 25 -21 -26 -17 -16 2 -17 0 -6 -8 11 -7 9 -10 -10 -14
-13 -3 4 -3 39 0 39 4 62 2 62 -5 0 -5 9 -8 20 -5 11 3 20 0 20 -6 0 -13 -46
-15 -54 -2 -3 4 -16 7 -28 5 -13 -2 -45 -6 -73 -10 l-50 -6 35 -29 c19 -16 44
-29 57 -29 12 0 37 -6 55 -14 18 -8 51 -22 73 -31 54 -21 9 -12 -95 19 -47 15
-97 35 -112 46 -32 24 -42 25 -34 5 6 -16 -9 -21 -18 -6 -3 5 -35 19 -72 32
-49 17 -61 25 -47 30 17 7 17 8 -2 10 -11 1 -60 3 -109 4 -66 1 -83 -1 -65 -8
13 -5 19 -11 12 -14 -12 -4 -67 13 -134 41 -20 8 -73 18 -118 22 -95 8 -109
23 -19 21 49 -2 63 1 64 13 0 8 2 26 2 39 2 23 4 24 65 18 34 -4 76 -9 92 -11
17 -3 22 -3 13 0 -10 3 -18 14 -18 24 0 14 -5 18 -17 13 -11 -4 -14 -3 -9 5 4
8 0 12 -11 12 -15 -1 -14 -4 7 -22 19 -16 20 -20 6 -14 -11 3 -35 9 -55 12
-20 3 -38 8 -40 10 -8 7 -3 596 7 732 l4 63 31 -6 c18 -3 46 -1 62 4 40 12 55
13 55 2z m-493 -43 c-3 -7 -5 -2 -5 12 0 14 2 19 5 13 2 -7 2 -19 0 -25z m132
-9 c0 8 4 12 7 9 9 -9 -7 -78 -17 -72 -5 3 -8 29 -8 57 1 45 2 48 9 22 4 -16
8 -24 9 -16z m197 -11 c-3 -29 -8 -208 -12 -398 -3 -190 -8 -347 -11 -350 -5
-5 -2 422 5 643 3 94 8 157 14 157 6 0 8 -20 4 -52z m-506 32 c0 -5 -2 -10 -4
-10 -3 0 -8 5 -11 10 -3 6 -1 10 4 10 6 0 11 -4 11 -10z m1200 6 c0 -2 -9 -6
-20 -9 -11 -3 -20 -1 -20 4 0 5 9 9 20 9 11 0 20 -2 20 -4z m684 -70 c-3 -9
-15 -16 -26 -16 -18 0 -20 5 -14 31 3 17 6 39 6 48 0 10 8 4 20 -15 11 -17 18
-39 14 -48z m-2565 17 c-1 -27 -4 -38 -6 -25 -2 12 -9 22 -14 22 -5 0 -9 11
-9 25 0 16 6 25 15 25 11 0 15 -11 14 -47z m55 25 c3 -13 6 -57 6 -99 0 -73
-6 -89 -36 -89 -2 0 -4 47 -4 105 0 83 3 105 14 105 7 0 16 -10 20 -22z m553
0 c-3 -8 -6 -5 -6 6 -1 11 2 17 5 13 3 -3 4 -12 1 -19z m280 -10 c-3 -7 -5 -2
-5 12 0 14 2 19 5 13 2 -7 2 -19 0 -25z m66 -11 c3 -22 2 -35 -4 -32 -5 4 -9
22 -9 42 0 45 5 40 13 -10z m84 -19 c-2 -13 -4 -3 -4 22 0 25 2 35 4 23 2 -13
2 -33 0 -45z m897 41 c-13 -15 -13 -17 2 -23 31 -12 -14 -44 -71 -51 -48 -7
-52 -5 -63 19 -7 16 -8 26 -2 26 6 0 10 7 10 17 0 15 1 15 18 0 16 -15 20 -15
44 6 14 12 37 22 51 22 23 0 24 -2 11 -16z m71 -1 c6 -4 2 -8 -7 -8 -10 0 -18
7 -18 17 0 9 3 12 8 7 4 -5 12 -12 17 -16z m97 -32 c19 -21 10 -36 -24 -36
-14 0 -18 8 -18 33 0 35 12 57 19 36 2 -7 12 -22 23 -33z m574 29 c-3 -8 -9
-21 -12 -29 -4 -11 0 -13 16 -9 12 3 24 12 27 19 6 17 23 8 23 -11 0 -17 -72
-33 -78 -17 -2 6 -9 9 -16 6 -27 -11 -25 25 2 40 36 19 45 19 38 1z m-2729
-32 c-3 -10 -5 -4 -5 12 0 17 2 24 5 18 2 -7 2 -21 0 -30z m870 15 c-3 -8 -6
-5 -6 6 -1 11 2 17 5 13 3 -3 4 -12 1 -19z m630 0 c-3 -8 -6 -5 -6 6 -1 11 2
17 5 13 3 -3 4 -12 1 -19z m-580 -20 c-3 -7 -5 -2 -5 12 0 14 2 19 5 13 2 -7
2 -19 0 -25z m60 0 c-3 -7 -5 -2 -5 12 0 14 2 19 5 13 2 -7 2 -19 0 -25z m540
10 c-3 -8 -6 -5 -6 6 -1 11 2 17 5 13 3 -3 4 -12 1 -19z m952 18 c-2 -2 -50
-6 -106 -9 -56 -3 -107 -8 -113 -12 -5 -3 -10 -2 -10 4 0 5 8 12 18 14 21 6
217 9 211 3z m-2300 -94 c14 -46 26 -70 33 -66 6 4 9 1 6 -6 -11 -34 -27 -15
-48 57 -12 43 -25 85 -28 93 -3 10 -2 12 5 5 6 -5 20 -43 32 -83z m96 -15 c15
-38 24 -71 21 -74 -3 -4 -6 0 -6 8 0 12 -2 11 -11 -1 -9 -13 -10 -12 -5 2 3
10 -8 49 -24 87 -15 38 -25 72 -22 76 4 3 10 -2 14 -12 4 -10 19 -49 33 -86z
m1195 78 c11 -13 10 -14 -4 -9 -9 3 -16 10 -16 15 0 13 6 11 20 -6z m1200 5
c0 -5 -4 -10 -10 -10 -5 0 -10 5 -10 10 0 6 5 10 10 10 6 0 10 -4 10 -10z
m-1112 -45 c-7 -7 -48 7 -48 16 0 11 23 7 32 -6 4 -5 8 1 9 15 2 25 2 25 6 2
3 -13 3 -25 1 -27z m-676 -2 c108 -25 137 -45 54 -36 -39 5 -44 3 -43 -13 1
-12 -4 -18 -12 -16 -8 2 -17 -1 -20 -7 -4 -6 -12 -7 -21 -1 -13 9 -13 10 0 10
13 0 13 1 0 10 -8 5 -21 10 -29 10 -11 0 -11 -3 -1 -15 9 -11 9 -15 1 -15 -6
0 -14 6 -17 14 -3 8 -33 19 -70 26 -73 14 -90 36 -19 26 56 -9 61 10 5 19 -22
4 -43 11 -46 17 -10 15 89 2 218 -29z m1158 33 c0 -3 -4 -8 -10 -11 -5 -3 -10
-1 -10 4 0 6 5 11 10 11 6 0 10 -2 10 -4z m57 -12 c-3 -3 -12 -4 -19 -1 -8 3
-5 6 6 6 11 1 17 -2 13 -5z m-1747 -77 c12 -32 20 -60 18 -63 -4 -4 -22 36
-54 121 -17 48 15 -5 36 -58z m-170 -54 c0 -2 -4 -3 -8 -3 -8 0 -33 89 -31
113 0 9 38 -98 39 -110z m-260 56 c0 -11 -4 -17 -10 -14 -5 3 -10 13 -10 21 0
8 5 14 10 14 6 0 10 -9 10 -21z m845 0 c16 -6 12 -8 -15 -8 -19 0 -48 6 -65
13 -30 14 -29 14 15 8 25 -3 54 -8 65 -13z m749 -41 c3 -16 2 -28 -3 -28 -5 0
-11 16 -13 35 -5 39 6 34 16 -7z m33 0 c-3 -8 -6 -5 -6 6 -1 11 2 17 5 13 3
-3 4 -12 1 -19z m-1297 2 c0 -5 -2 -10 -4 -10 -3 0 -8 5 -11 10 -3 6 -1 10 4
10 6 0 11 -4 11 -10z m149 -30 c0 -10 -3 -8 -9 5 -12 27 -12 43 0 25 5 -8 9
-22 9 -30z m324 28 c-2 -5 1 -8 6 -8 6 0 11 4 11 8 0 5 7 9 15 9 8 0 15 -5 15
-10 0 -5 9 -7 20 -4 11 3 18 1 14 -4 -3 -5 0 -9 5 -9 18 0 12 -47 -6 -54 -9
-4 -47 1 -85 10 -58 14 -68 20 -68 39 0 12 2 24 5 27 8 8 73 4 68 -4z m175
-34 c2 -1 0 -14 -4 -28 -5 -20 -12 -26 -27 -24 -25 4 -38 45 -23 70 10 16 12
16 31 0 11 -9 21 -17 23 -18z m1895 29 c-7 -2 -19 -2 -25 0 -7 3 -2 5 12 5 14
0 19 -2 13 -5z m-2268 -13 c-3 -5 -10 -10 -16 -10 -5 0 -9 5 -9 10 0 6 7 10
16 10 8 0 12 -4 9 -10z m32 -12 c-3 -8 -6 -5 -6 6 -1 11 2 17 5 13 3 -3 4 -12
1 -19z m1115 -8 c3 -17 1 -33 -4 -36 -4 -3 -8 11 -8 30 0 44 6 47 12 6z m-88
5 c3 -8 1 -15 -4 -15 -6 0 -10 7 -10 15 0 8 2 15 4 15 2 0 6 -7 10 -15z m-606
-19 c11 -26 7 -36 -16 -36 -8 0 -12 6 -9 14 3 8 -1 17 -9 20 -9 3 -12 10 -9
16 11 18 31 11 43 -14z m1345 18 c10 -10 -12 -44 -28 -44 -18 0 -20 36 -2 43
18 8 23 8 30 1z m-573 -34 c0 -16 -4 -30 -8 -30 -5 0 -7 14 -4 30 2 17 6 30 8
30 2 0 4 -13 4 -30z m377 24 c-3 -3 -12 -4 -19 -1 -8 3 -5 6 6 6 11 1 17 -2
13 -5z m232 -20 c-6 -7 -15 -11 -21 -8 -5 3 -4 12 3 20 6 7 15 11 21 8 5 -3 4
-12 -3 -20z m51 -4 c0 -5 -5 -10 -11 -10 -5 0 -7 5 -4 10 3 6 8 10 11 10 2 0
4 -4 4 -10z m-695 -10 c3 -5 1 -10 -4 -10 -6 0 -11 5 -11 10 0 6 2 10 4 10 3
0 8 -4 11 -10z m745 6 c0 -3 -4 -8 -10 -11 -5 -3 -10 -1 -10 4 0 6 5 11 10 11
6 0 10 -2 10 -4z m-846 -12 c23 -9 20 -27 -3 -19 -15 5 -18 1 -13 -20 3 -18 0
-25 -12 -25 -11 0 -15 9 -14 35 1 35 10 41 42 29z m61 -24 c3 -5 2 -10 -4 -10
-5 0 -13 5 -16 10 -3 6 -2 10 4 10 5 0 13 -4 16 -10z m-2198 -22 c-3 -8 -6 -5
-6 6 -1 11 2 17 5 13 3 -3 4 -12 1 -19z m333 -33 c40 -70 80 -153 80 -166 0
-13 -34 47 -82 144 -40 82 -39 95 2 22z m1838 17 c5 -17 -13 -15 -27 2 -10 12
-9 14 5 12 10 -2 20 -8 22 -14z m142 3 c0 -9 -6 -12 -15 -9 -8 4 -15 10 -15
15 0 5 7 9 15 9 8 0 15 -7 15 -15z m-2270 -169 c0 -5 -3 -7 -6 -3 -8 8 -33
126 -33 152 1 18 38 -126 39 -149z m691 71 c1 -48 -1 -90 -5 -94 -3 -3 -6 38
-6 92 0 121 8 122 11 2z m650 4 c2 -51 -1 -86 -7 -88 -11 -4 -18 107 -8 150 3
16 7 27 9 25 2 -2 5 -41 6 -87z m1849 62 c0 -12 -7 -14 -30 -9 -17 3 -30 1
-30 -4 0 -6 14 -10 31 -10 17 0 28 -4 24 -10 -3 -5 -19 -10 -36 -10 -24 0 -29
4 -29 25 0 21 -5 25 -30 25 -16 0 -30 3 -30 8 0 4 29 5 65 4 50 -3 65 -7 65
-19z m-1113 11 c-3 -3 -12 -4 -19 -1 -8 3 -5 6 6 6 11 1 17 -2 13 -5z m150
-26 c-3 -7 -5 -2 -5 12 0 14 2 19 5 13 2 -7 2 -19 0 -25z m48 -6 c-6 -7 -35
18 -35 31 0 5 9 2 20 -8 11 -10 18 -20 15 -23z m522 32 c-3 -3 -12 -4 -19 -1
-8 3 -5 6 6 6 11 1 17 -2 13 -5z m-1560 -126 c-2 -24 -4 -5 -4 42 0 47 2 66 4
43 2 -24 2 -62 0 -85z m1863 86 c0 -9 -7 -14 -17 -12 -25 5 -28 28 -4 28 12 0
21 -6 21 -16z m-2642 -69 c-1 -41 -6 -75 -10 -75 -4 0 -8 34 -8 75 0 44 4 75
10 75 6 0 9 -30 8 -75z m122 1 c0 -62 0 -63 -25 -58 -15 2 -25 11 -24 21 0 9
3 11 5 4 8 -19 34 -3 34 21 0 17 -2 18 -10 6 -8 -12 -10 -9 -10 13 0 16 4 26
10 22 6 -3 10 3 10 14 0 12 2 21 5 21 3 0 5 -29 5 -64z m727 -28 c-2 -18 -4
-6 -4 27 0 33 2 48 4 33 2 -15 2 -42 0 -60z m-1267 62 c0 -5 -4 -10 -10 -10
-5 0 -10 5 -10 10 0 6 5 10 10 10 6 0 10 -4 10 -10z m1917 -27 c-3 -10 -5 -4
-5 12 0 17 2 24 5 18 2 -7 2 -21 0 -30z m20 5 c-3 -7 -5 -2 -5 12 0 14 2 19 5
13 2 -7 2 -19 0 -25z m80 0 c-3 -7 -5 -2 -5 12 0 14 2 19 5 13 2 -7 2 -19 0
-25z m-1270 -25 c-3 -10 -5 -2 -5 17 0 19 2 27 5 18 2 -10 2 -26 0 -35z m743
6 c0 -16 -4 -29 -10 -29 -5 0 -10 16 -10 36 0 21 4 33 10 29 6 -3 10 -19 10
-36z m487 9 c-3 -7 -5 -2 -5 12 0 14 2 19 5 13 2 -7 2 -19 0 -25z m1050 0 c-3
-8 -6 -5 -6 6 -1 11 2 17 5 13 3 -3 4 -12 1 -19z m-784 -15 c-7 -2 -19 -2 -25
0 -7 3 -2 5 12 5 14 0 19 -2 13 -5z m-1026 -25 c-3 -8 -6 -5 -6 6 -1 11 2 17
5 13 3 -3 4 -12 1 -19z m193 6 c0 -8 -5 -12 -10 -9 -6 4 -8 11 -5 16 9 14 15
11 15 -7z m-940 -9 c11 -13 8 -15 -13 -15 -26 0 -42 12 -30 24 11 11 30 7 43
-9z m537 -7 c-3 -8 -6 -5 -6 6 -1 11 2 17 5 13 3 -3 4 -12 1 -19z m30 0 c-3
-8 -6 -5 -6 6 -1 11 2 17 5 13 3 -3 4 -12 1 -19z m108 12 c3 -5 1 -10 -4 -10
-6 0 -11 5 -11 10 0 6 2 10 4 10 3 0 8 -4 11 -10z m-1121 -39 c-2 -2 -10 4
-18 12 -12 11 -13 16 -3 20 11 4 29 -23 21 -32z m226 35 c0 -3 -4 -8 -10 -11
-5 -3 -10 -1 -10 4 0 6 5 11 10 11 6 0 10 -2 10 -4z m1837 -58 c-3 -8 -6 -5
-6 6 -1 11 2 17 5 13 3 -3 4 -12 1 -19z m49 -14 c-4 -9 -9 -15 -11 -12 -3 3
-3 13 1 22 4 9 9 15 11 12 3 -3 3 -13 -1 -22z m955 -11 c13 -15 12 -15 -8 -4
-24 12 -29 21 -14 21 5 0 15 -7 22 -17z m-1644 -115 c-2 -18 -4 -4 -4 32 0 36
2 50 4 33 2 -18 2 -48 0 -65z m-150 35 c-3 -10 -5 -2 -5 17 0 19 2 27 5 18 2
-10 2 -26 0 -35z m1343 7 c11 -7 5 -10 -22 -10 -21 0 -38 5 -38 10 0 13 40 13
60 0z m50 0 c0 -5 -5 -10 -11 -10 -5 0 -7 5 -4 10 3 6 8 10 11 10 2 0 4 -4 4
-10z m-1853 -67 c-2 -16 -4 -5 -4 22 0 28 2 40 4 28 2 -13 2 -35 0 -50z m420
30 c-3 -10 -5 -4 -5 12 0 17 2 24 5 18 2 -7 2 -21 0 -30z m1797 -60 c-5 -37
-10 -58 -12 -45 -2 12 -7 20 -12 17 -5 -3 -3 7 5 22 8 15 15 41 15 57 0 16 3
27 6 23 3 -3 2 -36 -2 -74z m-1817 35 c-3 -7 -5 -2 -5 12 0 14 2 19 5 13 2 -7
2 -19 0 -25z m-795 -58 c2 -44 0 -80 -4 -80 -5 0 -8 22 -8 49 0 27 -3 63 -6
80 -4 19 -2 31 4 31 6 0 12 -33 14 -80z m908 50 c0 -5 -4 -10 -10 -10 -5 0
-10 5 -10 10 0 6 5 10 10 10 6 0 10 -4 10 -10z m-553 -22 c-3 -8 -6 -5 -6 6
-1 11 2 17 5 13 3 -3 4 -12 1 -19z m150 -10 c-3 -8 -6 -5 -6 6 -1 11 2 17 5
13 3 -3 4 -12 1 -19z m243 7 c0 -2 -7 -5 -15 -9 -9 -3 -15 0 -15 9 0 9 6 12
15 9 8 -4 15 -7 15 -9z m117 9 c-3 -3 -12 -4 -19 -1 -8 3 -5 6 6 6 11 1 17 -2
13 -5z m1559 -41 c-10 -10 -19 5 -10 18 6 11 8 11 12 0 2 -7 1 -15 -2 -18z
m294 7 c0 -12 -8 -15 -36 -12 -23 3 -31 7 -24 12 9 6 8 9 -6 13 -10 2 0 4 23
3 32 -1 43 -5 43 -16z m-2205 -9 c3 -5 1 -12 -5 -16 -5 -3 -10 1 -10 9 0 18 6
21 15 7z m-940 -75 c2 -19 6 -40 10 -46 3 -5 0 -7 -8 -4 -8 3 -20 -2 -27 -11
-18 -22 -28 -18 -22 10 2 14 8 22 13 20 4 -3 13 5 20 17 11 20 10 21 -3 11
-15 -13 -28 -8 -28 11 0 6 5 4 11 -4 8 -12 10 -10 8 10 -2 39 0 45 12 33 6 -6
12 -27 14 -47z m35 37 c0 -8 -5 -13 -12 -11 -18 6 -21 25 -3 25 8 0 15 -7 15
-14z m2717 1 c-3 -3 -12 -4 -19 -1 -8 3 -5 6 6 6 11 1 17 -2 13 -5z m306 -55
c5 -17 3 -18 -11 -8 -26 20 -42 41 -42 58 0 20 46 -24 53 -50z m-3006 -11 c-2
-13 -4 -3 -4 22 0 25 2 35 4 23 2 -13 2 -33 0 -45z m457 44 c3 -5 -1 -9 -9 -9
-8 0 -15 4 -15 9 0 4 4 8 9 8 6 0 12 -4 15 -8z m-477 -39 c-3 -10 -5 -4 -5 12
0 17 2 24 5 18 2 -7 2 -21 0 -30z m2965 -25 c-6 -6 -7 0 -4 19 5 21 7 23 10 9
2 -10 0 -22 -6 -28z m-535 26 c-3 -3 -12 -4 -19 -1 -8 3 -5 6 6 6 11 1 17 -2
13 -5z m-2530 -36 c-3 -7 -5 -2 -5 12 0 14 2 19 5 13 2 -7 2 -19 0 -25z m2817
17 c-4 -8 -15 -15 -25 -15 -10 0 -19 7 -19 15 0 9 9 15 25 15 18 0 23 -4 19
-15z m77 -31 c-7 -31 -9 -34 -10 -12 -1 27 9 62 15 55 3 -2 0 -22 -5 -43z
m-2774 -31 c-3 -10 -5 -2 -5 17 0 19 2 27 5 18 2 -10 2 -26 0 -35z m-32 28 c3
-5 1 -12 -5 -16 -5 -3 -10 1 -10 9 0 18 6 21 15 7z m2410 -1 c3 -5 -3 -10 -14
-10 -12 0 -21 5 -21 10 0 6 6 10 14 10 8 0 18 -4 21 -10z m292 -6 c9 -23 -11
-38 -26 -20 -13 16 -7 36 10 36 5 0 12 -7 16 -16z m-2792 -4 c3 -5 1 -10 -4
-10 -6 0 -11 5 -11 10 0 6 2 10 4 10 3 0 8 -4 11 -10z m3062 -27 c-3 -10 -5
-4 -5 12 0 17 2 24 5 18 2 -7 2 -21 0 -30z m-752 7 c8 -13 -5 -13 -25 0 -13 8
-13 10 2 10 9 0 20 -4 23 -10z m742 -92 c-3 -8 -6 -5 -6 6 -1 11 2 17 5 13 3
-3 4 -12 1 -19z m-288 -412 c7 -9 8 -17 2 -20 -5 -3 -8 -17 -6 -31 2 -19 -1
-23 -10 -15 -9 8 -15 7 -19 -2 -3 -7 -4 -4 -3 6 1 14 -6 22 -23 26 l-24 6 22
22 c25 25 45 28 61 8z m-1350 -113 c0 -11 -3 -13 -6 -5 -2 6 -12 12 -20 12 -9
0 -13 -6 -9 -15 3 -9 0 -15 -10 -15 -12 0 -12 4 -4 20 13 25 50 27 49 3z
m1351 -3 c-15 -12 -19 -20 -11 -20 8 0 12 -2 9 -5 -3 -3 -16 -1 -29 4 -24 9
-24 9 11 25 46 20 50 19 20 -4z m-1320 -10 c0 -5 -2 -10 -4 -10 -3 0 -8 5 -11
10 -3 6 -1 10 4 10 6 0 11 -4 11 -10z m-40 -35 c-11 -13 -15 -13 -21 -3 -5 8
-2 15 9 19 23 9 27 3 12 -16z m1506 10 c-11 -8 -22 -12 -25 -9 -6 6 19 24 34
24 6 -1 1 -7 -9 -15z"/>
<path d="M2990 1999 c0 -5 5 -7 10 -4 6 3 10 8 10 11 0 2 -4 4 -10 4 -5 0 -10
-5 -10 -11z"/>
<path d="M1900 1780 c0 -44 4 -80 9 -80 5 0 11 36 13 80 2 59 0 80 -9 80 -9 0
-13 -23 -13 -80z"/>
<path d="M1838 1769 c-2 -39 0 -73 5 -76 4 -2 7 30 7 71 0 42 -2 76 -4 76 -2
0 -6 -32 -8 -71z"/>
<path d="M1900 1536 c0 -73 -3 -154 -6 -180 -5 -31 -3 -46 5 -46 8 0 11 45 11
153 0 174 4 194 34 200 14 3 10 5 -11 6 l-33 1 0 -134z"/>
<path d="M1837 1653 c-6 -9 -11 -319 -6 -338 2 -5 5 69 8 165 4 96 5 176 5
178 -1 2 -4 -1 -7 -5z"/>
<path d="M1946 1613 c-6 -41 -9 -299 -2 -292 4 4 15 329 11 329 -1 0 -5 -17
-9 -37z"/>
<path d="M1874 1415 c0 -49 1 -71 3 -48 2 23 2 64 0 90 -2 26 -3 8 -3 -42z"/>
<path d="M1820 1199 c0 -51 4 -78 10 -74 6 3 10 38 10 77 0 65 1 70 20 65 11
-3 20 -1 20 4 0 5 -13 9 -30 9 l-30 0 0 -81z"/>
<path d="M1890 1189 c0 -51 4 -78 10 -74 6 3 10 40 10 81 0 43 -4 74 -10 74
-6 0 -10 -34 -10 -81z"/>
<path d="M1928 1263 c6 -2 18 -2 25 0 6 3 1 5 -13 5 -14 0 -19 -2 -12 -5z"/>
<path d="M1868 1232 c-3 -9 -2 -38 2 -62 7 -45 8 -44 9 18 1 62 -3 77 -11 44z"/>
<path d="M1941 1214 c0 -11 3 -14 6 -6 3 7 2 16 -1 19 -3 4 -6 -2 -5 -13z"/>
<path d="M1821 1094 c0 -11 3 -14 6 -6 3 7 2 16 -1 19 -3 4 -6 -2 -5 -13z"/>
<path d="M2008 963 c7 -3 16 -2 19 1 4 3 -2 6 -13 5 -11 0 -14 -3 -6 -6z"/>
<path d="M2265 955 c30 -13 30 -13 5 -15 -14 -1 -32 -1 -39 0 -11 1 -12 -1 -4
-12 8 -9 29 -12 70 -9 52 3 55 5 33 15 -14 6 -31 16 -38 23 -7 7 -23 13 -35
13 -19 -1 -18 -3 8 -15z"/>
<path d="M2185 890 c3 -5 19 -10 36 -10 16 0 29 -4 29 -10 0 -5 4 -10 10 -10
5 0 7 6 4 14 -4 11 4 16 28 19 18 2 0 5 -40 5 -47 1 -71 -2 -67 -8z"/>
<path d="M1365 1710 c11 -5 34 -9 50 -9 26 0 27 2 10 9 -11 5 -33 9 -50 9 -26
0 -27 -2 -10 -9z"/>
<path d="M7 1963 c-4 -3 -7 -22 -6 -42 0 -27 2 -31 8 -17 4 11 14 22 23 25 13
5 13 8 -2 23 -9 10 -20 15 -23 11z"/>
<path d="M139 1924 c-9 -11 -8 -14 5 -14 9 0 16 -4 16 -10 0 -5 -6 -10 -14
-10 -9 0 -12 -8 -8 -26 3 -19 9 -24 23 -21 11 3 17 1 13 -4 -3 -5 4 -9 14 -9
15 0 19 5 15 20 -3 11 0 20 6 20 12 0 16 59 4 61 -46 7 -63 6 -74 -7z m38 -36
c-3 -8 -6 -5 -6 6 -1 11 2 17 5 13 3 -3 4 -12 1 -19z m33 2 c0 -5 -4 -10 -10
-10 -5 0 -10 5 -10 10 0 6 5 10 10 10 6 0 10 -4 10 -10z"/>
<path d="M0 1815 c0 -38 3 -45 19 -45 23 0 26 4 36 49 6 29 5 33 -9 28 -9 -4
-16 -2 -16 3 0 6 -7 10 -15 10 -11 0 -15 -12 -15 -45z"/>
<path d="M228 1713 c7 -3 16 -2 19 1 4 3 -2 6 -13 5 -11 0 -14 -3 -6 -6z"/>
</g>
</svg>
