<?xml version="1.0" standalone="no"?>
<!DOCTYPE svg PUBLIC "-//W3C//DTD SVG 20010904//EN"
 "http://www.w3.org/TR/2001/REC-SVG-20010904/DTD/svg10.dtd">
<svg version="1.0" xmlns="http://www.w3.org/2000/svg"
 width="234.000000pt" height="216.000000pt" viewBox="0 0 234.000000 216.000000"
 preserveAspectRatio="xMidYMid meet">

<g transform="translate(0.000000,216.000000) scale(0.100000,-0.100000)"
fill="#000000" stroke="none">
<path d="M0 1080 l0 -1080 1170 0 1170 0 0 1080 0 1080 -804 0 -805 0 -4 -27
-4 -28 -2 28 -1 27 -360 0 -360 0 0 -1080z m1018 928 c3 30 12 28 45 -9 24
-27 27 -39 27 -99 0 -60 3 -71 22 -84 12 -9 18 -16 12 -16 -12 0 -50 26 -84
57 -14 13 -28 23 -32 23 -5 0 -7 46 -6 103 1 83 2 93 8 52 4 -27 8 -40 8 -27z
m864 -22 c20 -4 49 -21 64 -37 15 -16 34 -29 41 -29 8 0 26 -26 40 -57 21 -49
24 -63 14 -87 -8 -24 -8 -33 4 -46 21 -23 19 -57 -4 -63 -27 -7 -16 -43 15
-51 25 -7 30 -31 16 -68 -6 -16 -9 -16 -39 3 -18 12 -33 27 -33 35 0 8 -4 14
-10 14 -5 0 -10 7 -10 15 0 8 -16 30 -35 49 -19 20 -35 38 -35 42 0 4 -11 22
-25 40 -41 54 -81 165 -77 213 3 31 8 40 21 37 9 -1 32 -6 53 -10z m-1242
-125 c0 -74 4 -113 13 -126 13 -16 14 -15 10 16 -3 25 -2 30 5 20 8 -11 12 -6
17 22 4 19 4 40 1 46 -4 5 -2 12 3 15 14 9 25 -134 11 -148 -6 -6 -11 -7 -10
-1 4 20 -1 30 -8 17 -10 -16 -42 -5 -42 14 0 8 -4 14 -10 14 -6 0 -10 45 -10
116 0 74 4 113 10 109 6 -4 10 -53 10 -114z m-224 -19 c-12 -11 -13 4 -7 68
l6 65 3 -64 c2 -35 1 -66 -2 -69z m-149 76 c-3 -7 -5 -2 -5 12 0 14 2 19 5 13
2 -7 2 -19 0 -25z m1424 -28 c-1 -45 1 -50 20 -50 16 0 20 5 16 20 -3 11 -1
20 4 20 5 0 9 -8 9 -19 0 -10 11 -34 24 -53 16 -24 22 -44 19 -62 -6 -30 -19
-34 -26 -8 -3 9 -5 2 -6 -17 -1 -27 1 -31 13 -22 10 9 15 8 20 -4 3 -8 12 -15
20 -15 18 0 36 -30 36 -59 0 -27 38 -53 60 -41 13 7 22 5 31 -6 8 -10 21 -13
41 -9 24 6 28 4 28 -15 0 -18 -5 -21 -32 -18 -40 4 -46 -15 -14 -43 14 -13 26
-30 26 -38 1 -13 2 -13 11 2 5 9 14 17 19 17 12 0 83 -48 92 -63 9 -14 11
-409 2 -431 -7 -19 -30 -21 -40 -4 -4 7 -11 28 -15 48 l-7 35 -1 -32 c-1 -32
-15 -51 -25 -34 -3 4 -7 35 -10 67 -2 33 -7 66 -11 75 -3 9 -5 20 -4 25 6 36
2 37 -128 29 -71 -4 -148 -10 -173 -14 -44 -6 -45 -7 -53 -53 -9 -47 -19 -59
-32 -37 -5 6 -12 4 -21 -8 -12 -17 -13 -16 -14 9 0 33 9 58 22 58 5 0 6 -6 2
-12 -6 -10 -4 -10 7 0 15 14 4 28 -26 34 -16 3 -20 11 -20 47 0 26 5 45 12 48
7 3 13 10 13 15 0 6 -10 4 -22 -5 -18 -11 -23 -24 -23 -58 l0 -44 -50 -8 c-27
-5 -60 -9 -72 -9 -13 0 -23 -4 -23 -9 0 -13 -73 -24 -78 -10 -5 14 -35 14 -50
-1 -6 -6 -42 -12 -79 -12 -38 -1 -74 -5 -81 -9 -7 -5 -19 -6 -27 -3 -8 3 -17
1 -20 -4 -4 -6 -11 -10 -16 -10 -6 0 -7 5 -3 11 4 8 -3 9 -22 5 -23 -4 -311
-32 -374 -35 -8 -1 -42 -5 -75 -10 -33 -5 -76 -9 -95 -9 -19 1 6 6 55 12 l90
11 2 35 c1 19 6 36 12 38 19 6 13 80 -8 91 -10 6 -21 7 -25 4 -3 -3 -6 -1 -6
5 0 6 15 10 34 9 l34 -2 4 -75 c3 -59 1 -78 -12 -88 -12 -10 -2 -11 55 -6 103
8 98 3 93 94 -2 51 1 79 7 77 6 -2 9 -36 8 -80 -3 -86 -9 -82 84 -71 l52 7 -4
64 c-2 36 1 61 5 57 5 -5 11 -36 13 -69 2 -36 3 -25 3 29 -1 59 -5 91 -13 93
-6 2 -13 -6 -16 -19 -4 -20 -4 -20 -6 5 -1 23 3 27 24 27 14 0 25 -5 25 -10 0
-6 15 -8 40 -4 l40 7 2 -84 2 -84 5 80 c5 62 9 80 21 80 12 0 16 -17 18 -78 2
-66 5 -78 18 -73 9 3 19 6 23 6 5 0 6 31 4 69 l-5 68 61 2 61 1 0 -60 c0 -47
3 -60 15 -60 12 0 15 13 15 60 0 56 2 60 23 60 12 0 28 4 36 9 18 12 -17 16
-254 36 -188 15 -373 31 -470 41 -27 3 -55 12 -61 20 -6 8 -22 14 -35 14 -19
0 -21 -2 -9 -10 12 -8 11 -10 -6 -10 -38 0 -84 12 -78 21 3 5 0 9 -7 9 -10 0
-10 3 -1 12 8 8 13 60 14 157 1 116 3 131 7 71 6 -69 7 -72 13 -35 4 22 8 52
8 68 0 18 5 27 15 27 14 0 15 -18 9 -141 -8 -157 -7 -159 58 -159 36 0 57 13
39 24 -5 4 -12 0 -14 -6 -3 -7 -6 28 -6 78 -1 58 3 94 11 102 7 7 8 12 2 12
-15 0 -11 54 5 64 10 6 16 5 19 -2 2 -7 14 -12 27 -12 30 0 35 -20 35 -157 0
-64 4 -114 10 -118 6 -4 10 40 10 124 0 72 1 131 3 131 1 -1 25 -7 52 -14 50
-13 50 -14 52 -56 2 -52 13 -66 14 -19 l1 34 8 -30 c4 -16 8 -67 9 -112 1 -59
5 -83 14 -83 9 0 11 28 9 115 -2 67 0 115 6 115 10 0 22 -94 22 -175 0 -60 9
-67 64 -58 l35 5 -3 68 c-2 37 -1 80 1 96 4 27 8 29 44 28 50 -1 50 10 -1 25
-22 6 -40 16 -40 21 0 6 -13 10 -30 10 -16 0 -30 5 -30 10 0 6 -13 10 -29 10
-16 0 -37 7 -45 16 -9 8 -20 12 -26 9 -17 -11 -79 15 -85 36 -4 11 -10 17 -14
14 -9 -5 -24 115 -16 123 3 3 5 -6 5 -21 0 -14 5 -29 10 -32 6 -4 10 23 11 72
1 53 3 70 9 53 4 -14 6 -65 5 -115 -1 -49 0 -72 3 -50 l6 40 6 -45 c7 -43 7
-43 8 19 2 76 9 77 16 2 6 -66 16 -79 16 -20 0 24 3 74 6 111 5 50 10 64 18
55 8 -7 12 -48 12 -119 -1 -112 10 -148 17 -55 l4 52 1 -55 c0 -30 1 -60 1
-65 1 -15 56 -13 57 3 1 6 2 46 3 88 1 66 3 75 16 64 8 -6 19 -9 26 -5 20 13
29 -18 29 -106 0 -81 1 -87 23 -93 12 -3 25 -6 30 -6 4 0 7 43 7 95 0 52 2 95
5 95 2 0 16 -5 30 -12 36 -16 45 0 45 85 0 53 3 67 15 67 12 0 15 -15 15 -74
0 -58 4 -79 18 -92 16 -17 17 -15 20 39 4 77 22 73 24 -5 l1 -63 6 65 c5 50 8
59 13 40 4 -14 8 -46 8 -71 0 -34 4 -49 16 -53 24 -9 27 -2 25 59 -1 32 3 55
9 55 5 0 10 -6 10 -12 0 -7 12 -18 25 -25 24 -11 26 -10 32 18 5 26 10 29 42
29 20 0 42 -5 49 -12 16 -16 16 4 0 21 -11 11 -9 11 10 2 19 -10 22 -18 17
-44 -5 -26 -4 -29 5 -14 12 19 10 58 -3 68 -5 3 -1 9 8 13 14 5 16 -2 13 -59
-2 -44 -7 -65 -15 -65 -7 0 -13 -6 -13 -12 0 -9 -3 -8 -9 1 -14 21 -22 -21
-18 -86 4 -61 17 -83 18 -32 1 19 4 45 9 59 10 34 18 12 24 -67 l5 -63 -29 15
c-16 8 -30 15 -32 15 -2 0 -1 -28 1 -62 5 -58 5 -60 10 -23 5 31 10 40 26 40
24 0 31 -37 16 -89 -5 -22 -6 -36 0 -36 5 0 10 8 10 18 1 16 2 16 6 0 2 -10 9
-18 14 -18 12 0 12 37 -1 45 -5 3 -10 33 -10 66 0 33 4 58 9 55 5 -3 12 10 15
28 4 19 12 37 19 39 17 6 47 -11 47 -28 0 -7 7 -20 15 -29 8 -8 19 -25 24 -38
9 -21 10 -20 10 10 1 25 6 35 21 39 11 3 20 12 20 19 0 8 7 14 15 14 11 0 15
12 15 45 0 25 -4 45 -10 45 -5 0 -10 -7 -10 -15 0 -8 -2 -15 -4 -15 -2 0 -13
-3 -23 -6 -15 -5 -15 -4 -3 5 9 6 10 11 3 11 -6 0 -14 8 -16 18 -3 9 -5 4 -6
-13 l-1 -30 -15 29 c-19 37 -21 200 -2 194 6 -3 15 -20 18 -39 5 -27 7 -23 8
25 0 33 4 56 8 53 3 -4 5 -29 4 -57z m26 8 c-3 -7 -5 -2 -5 12 0 14 2 19 5 13
2 -7 2 -19 0 -25z m-87 -83 c0 -77 -3 -93 -14 -89 -18 7 -26 36 -26 101 0 61
7 83 26 83 11 0 14 -20 14 -95z m-50 16 c0 -72 -4 -83 -26 -74 -10 4 -14 24
-14 72 0 60 2 67 20 68 18 2 20 -4 20 -66z m-1203 37 c-3 -8 -6 -5 -6 6 -1 11
2 17 5 13 3 -3 4 -12 1 -19z m83 -9 c0 -17 -4 -28 -10 -24 -5 3 -10 17 -10 31
0 13 5 24 10 24 6 0 10 -14 10 -31z m908 -44 c-3 -3 -9 2 -12 12 -6 14 -5 15
5 6 7 -7 10 -15 7 -18z m-973 -67 c1 -13 3 -63 4 -112 0 -49 4 -87 7 -83 3 3
10 50 14 104 l7 98 0 -110 c1 -60 -2 -137 -6 -170 l-6 -60 -50 6 c-36 4 -41 6
-17 7 l32 2 0 177 c0 97 3 173 6 170 4 -4 8 -17 9 -29z m-108 -10 c-3 -7 -5
-2 -5 12 0 14 2 19 5 13 2 -7 2 -19 0 -25z m-37 -149 c0 -126 -2 -149 -15
-149 -13 0 -15 24 -15 155 0 133 2 154 15 149 12 -5 15 -32 15 -155z m-42 -20
c-2 -80 -7 -127 -13 -125 -5 2 -9 10 -7 20 2 9 -2 16 -8 16 -5 0 -10 -7 -10
-15 0 -8 -4 -15 -9 -15 -12 0 -13 128 -1 135 6 4 10 -12 10 -36 0 -45 15 -46
16 -1 3 142 5 163 14 157 7 -4 9 -55 8 -136z m-76 -52 c-6 -12 -13 -31 -14
-42 -2 -11 -7 29 -11 89 -4 59 -4 113 0 120 13 20 37 -143 25 -167z m28 128
c0 -19 -4 -35 -10 -35 -11 0 -13 30 -4 54 10 25 14 19 14 -19z m121 15 c3 32
16 -88 18 -162 1 -54 -1 -58 -21 -58 -16 0 -19 3 -10 8 9 7 10 15 3 35 -8 20
-7 27 2 28 9 0 9 2 0 6 -9 3 -13 30 -12 86 1 57 3 74 9 57 l8 -25 3 25z m1434
10 c8 -13 -5 -13 -25 0 -13 8 -13 10 2 10 9 0 20 -4 23 -10z m-1630 -167 c-4
-28 -10 -40 -19 -37 -16 6 -9 176 8 186 13 9 21 -85 11 -149z m-48 85 c-2 -13
-4 -3 -4 22 0 25 2 35 4 23 2 -13 2 -33 0 -45z m384 -196 c-7 -2 -18 1 -23 6
-8 8 -4 9 13 5 13 -4 18 -8 10 -11z m157 -184 c-1 -122 -2 -127 -8 -58 -11
116 -11 190 0 190 6 0 9 -50 8 -132z m302 79 c0 -9 -11 -12 -37 -8 -35 4 -36
5 -13 12 39 11 50 10 50 -4z m7 -59 c-3 -8 -6 -5 -6 6 -1 11 2 17 5 13 3 -3 4
-12 1 -19z m-440 -50 c-2 -13 -4 -3 -4 22 0 25 2 35 4 23 2 -13 2 -33 0 -45z
m933 -138 c0 -68 -1 -70 -31 -85 -17 -9 -32 -15 -33 -13 -2 2 -8 23 -13 48
l-11 45 -1 -51 -1 -50 -53 -22 c-80 -33 -78 -35 -75 71 3 80 5 92 20 89 9 -1
19 2 23 8 12 20 45 11 46 -12 1 -22 1 -22 8 1 9 34 31 39 31 7 0 -14 4 -26 9
-26 5 0 7 9 4 21 -4 12 0 25 8 30 22 14 29 11 29 -12 0 -12 4 -17 11 -14 6 4
8 13 5 20 -6 15 3 27 15 19 5 -3 9 -36 9 -74z m150 59 c0 -11 -4 -17 -10 -14
-5 3 -10 13 -10 21 0 8 5 14 10 14 6 0 10 -9 10 -21z m-105 -64 c0 -29 -4 -45
-12 -45 -9 0 -13 16 -13 45 0 29 4 45 13 45 8 0 12 -16 12 -45z m-320 -70 c0
-71 -4 -100 -13 -103 -7 -2 -12 0 -11 5 1 4 0 46 -1 93 -2 72 -3 80 -11 50 -5
-19 -8 -64 -7 -99 1 -42 -3 -66 -10 -69 -8 -2 -12 16 -12 62 0 35 -4 68 -10
71 -15 9 -12 61 4 74 7 6 21 9 30 5 9 -4 16 -1 16 6 0 6 6 10 13 7 8 -3 12
-32 12 -102z m22 83 c-3 -8 -6 -5 -6 6 -1 11 2 17 5 13 3 -3 4 -12 1 -19z
m-714 -5 c-13 -2 -35 -2 -50 0 -16 2 -5 4 22 4 28 0 40 -2 28 -4z m580 0 c-7
-2 -19 -2 -25 0 -7 3 -2 5 12 5 14 0 19 -2 13 -5z m-675 -10 c-10 -2 -26 -2
-35 0 -10 3 -2 5 17 5 19 0 27 -2 18 -5z m1312 -12 c0 -19 -22 -23 -38 -7 -15
15 -14 16 11 16 15 0 27 -4 27 -9z m-762 -127 c4 -106 -2 -130 -30 -119 -14 6
-21 45 -32 185 -3 29 33 65 49 49 5 -5 11 -57 13 -115z m259 64 c-2 -13 -4 -5
-4 17 -1 22 1 32 4 23 2 -10 2 -28 0 -40z m-400 20 c-3 -8 -6 -5 -6 6 -1 11 2
17 5 13 3 -3 4 -12 1 -19z m-77 -117 c0 -76 -4 -132 -10 -136 -6 -4 -10 42
-10 129 0 84 4 136 10 136 6 0 10 -50 10 -129z m137 -38 c-2 -32 -3 -6 -3 57
0 63 1 89 3 58 2 -32 2 -84 0 -115z m-267 112 c0 -14 -4 -25 -9 -25 -4 0 -6
11 -3 25 2 14 6 25 8 25 2 0 4 -11 4 -25z m194 -80 c-2 -38 -4 -70 -4 -70 -1
0 -3 -13 -5 -29 -9 -66 -15 -31 -15 85 0 106 2 121 13 104 9 -13 13 -44 11
-90z m656 16 c0 -70 -16 -91 -21 -28 -5 53 0 87 12 87 5 0 9 -27 9 -59z m-922
14 c0 -15 -5 -22 -11 -18 -7 4 -8 0 -3 -12 6 -18 -12 -91 -21 -82 -8 9 -11 42
-3 52 4 6 10 27 14 48 8 42 24 50 24 12z m85 -25 c-6 -22 -7 -22 -13 -4 -9 23
-1 49 11 37 5 -5 5 -19 2 -33z m-233 23 c0 -5 -5 -15 -10 -23 -8 -12 -10 -11
-10 8 0 12 5 22 10 22 6 0 10 -3 10 -7z m49 -33 c7 -22 7 -29 -1 -24 -21 13
-25 -19 -7 -67 15 -40 16 -47 4 -43 -8 4 -15 16 -15 27 0 53 -27 -28 -46 -135
-6 -39 -34 -54 -31 -18 1 11 4 20 8 20 4 0 9 19 12 43 6 49 33 190 42 218 8
25 20 17 34 -21z m918 -35 c-2 -36 -7 -69 -11 -72 -3 -3 -6 1 -6 10 0 10 -5
17 -11 17 -7 0 -9 -9 -5 -24 6 -26 -15 -52 -34 -41 -5 3 -10 37 -10 74 0 60 3
71 23 84 12 9 30 16 40 16 16 1 18 -6 14 -64z m-747 -16 c0 -11 -4 -18 -10
-14 -5 3 -7 12 -3 20 7 21 13 19 13 -6z m570 -83 c0 -49 -4 -88 -11 -91 -15
-10 -16 -8 -24 88 -7 84 -6 87 14 87 20 0 21 -5 21 -84z m306 12 c-4 -28 -14
-60 -22 -72 -13 -19 -14 -18 -15 19 -2 56 1 68 18 88 24 26 26 22 19 -35z
m-1150 -34 c-8 -21 -15 -34 -15 -28 -1 15 20 76 25 71 2 -2 -2 -21 -10 -43z
m731 4 c-3 -8 -6 -5 -6 6 -1 11 2 17 5 13 3 -3 4 -12 1 -19z m-636 -1 c-1 -4
-1 -16 -1 -28 0 -11 -4 -17 -10 -14 -14 8 -13 58 1 53 6 -2 10 -7 10 -11z
m526 -74 c-3 -10 -5 -2 -5 17 0 19 2 27 5 18 2 -10 2 -26 0 -35z m1219 -124
l-14 -21 -12 22 c-12 22 -5 75 12 97 5 6 9 20 8 30 -1 10 -1 23 0 28 1 6 7
-23 12 -63 7 -58 6 -76 -6 -93z m-1865 114 c-12 -20 -14 -14 -5 12 4 9 9 14
11 11 3 -2 0 -13 -6 -23z m103 -10 c-6 -9 -17 -18 -25 -21 -8 -2 -6 4 6 14 14
11 16 18 7 21 -6 3 -9 9 -6 15 4 6 10 6 17 -1 8 -8 8 -16 1 -28z m193 -95 c-3
-7 -5 -2 -5 12 0 14 2 19 5 13 2 -7 2 -19 0 -25z m463 17 c-7 -8 -16 -15 -21
-15 -5 0 -6 7 -3 15 4 8 13 15 21 15 13 0 13 -3 3 -15z m-323 -37 c-3 -7 -5
-2 -5 12 0 14 2 19 5 13 2 -7 2 -19 0 -25z m-290 -65 c-2 -16 -4 -5 -4 22 0
28 2 40 4 28 2 -13 2 -35 0 -50z m104 -56 c-8 -8 -11 7 -11 49 0 79 14 93 18
18 2 -31 -2 -62 -7 -67z m36 66 c-3 -10 -5 -2 -5 17 0 19 2 27 5 18 2 -10 2
-26 0 -35z m290 25 c-3 -8 -6 -5 -6 6 -1 11 2 17 5 13 3 -3 4 -12 1 -19z
m-119 -68 c0 -22 -1 -22 -8 5 -4 17 -8 41 -8 55 0 22 1 22 8 -5 4 -16 8 -41 8
-55z m1412 33 c0 -13 -4 -23 -9 -23 -5 0 -7 -18 -4 -40 7 -51 -12 -54 -26 -3
-8 26 -7 39 1 44 6 4 8 12 4 18 -4 6 -2 20 5 32 9 17 13 19 20 8 5 -8 9 -24 9
-36z m-863 -85 c-2 -13 -4 -3 -4 22 0 25 2 35 4 23 2 -13 2 -33 0 -45z m-770
-30 c-3 -7 -5 -2 -5 12 0 14 2 19 5 13 2 -7 2 -19 0 -25z m1037 -236 c13 -8
-52 -30 -89 -31 -54 -1 -68 29 -20 42 21 5 94 -2 109 -11z"/>
<path d="M1145 1778 c-7 -18 31 -68 52 -68 7 0 17 -15 22 -32 7 -26 9 -28 10
-10 1 16 6 22 19 20 27 -5 32 -18 33 -93 l2 -70 6 62 c7 71 14 82 42 64 25
-15 37 -7 18 11 -15 14 -89 60 -149 93 -19 10 -38 23 -42 29 -4 7 -9 4 -13 -6z"/>
<path d="M972 1700 c0 -14 2 -19 5 -12 2 6 2 18 0 25 -3 6 -5 1 -5 -13z"/>
<path d="M1375 1708 c-4 -10 -4 -26 0 -35 8 -17 8 -17 12 0 3 9 3 25 0 35 -4
16 -4 16 -12 0z"/>
<path d="M1750 1667 c0 -9 4 -18 9 -21 5 -4 8 1 7 9 -3 21 -16 31 -16 12z"/>
<path d="M1388 1584 c2 -31 5 -54 7 -52 8 8 8 89 0 97 -7 7 -9 -10 -7 -45z"/>
<path d="M631 1573 c1 -53 6 -49 11 10 2 20 0 37 -4 37 -4 0 -8 -21 -7 -47z"/>
<path d="M1080 1561 c0 -5 11 -12 25 -15 24 -6 25 -9 27 -104 l2 -97 3 93 c3
84 12 108 28 82 3 -5 19 -10 34 -10 42 0 68 -37 76 -109 10 -86 21 -76 17 15
-3 71 -2 76 15 69 10 -4 31 -12 47 -17 27 -10 28 -13 23 -57 -2 -25 -1 -55 3
-66 5 -13 9 3 11 48 l4 69 -35 15 c-29 13 -269 93 -277 93 -2 0 -3 -4 -3 -9z"/>
<path d="M813 1450 c0 -41 2 -58 4 -37 2 20 2 54 0 75 -2 20 -4 3 -4 -38z"/>
<path d="M1600 1509 c0 -5 5 -7 10 -4 6 3 10 8 10 11 0 2 -4 4 -10 4 -5 0 -10
-5 -10 -11z"/>
<path d="M463 1455 c0 -22 2 -30 4 -17 2 12 2 30 0 40 -3 9 -5 -1 -4 -23z"/>
<path d="M1679 1467 c6 -8 8 -17 4 -20 -3 -4 -1 -7 5 -7 7 0 12 -9 12 -20 0
-11 5 -20 10 -20 6 0 10 9 10 20 0 27 28 25 33 -2 4 -22 4 -21 6 2 1 18 -8 30
-30 43 -38 21 -67 23 -50 4z"/>
<path d="M1017 1433 c-4 -3 -7 -21 -7 -40 0 -23 5 -33 15 -33 11 0 15 11 15
40 0 38 -8 49 -23 33z"/>
<path d="M1460 1425 c0 -16 16 -20 24 -6 3 5 -1 11 -9 15 -9 3 -15 0 -15 -9z"/>
<path d="M1202 1365 c0 -16 2 -22 5 -12 2 9 2 23 0 30 -3 6 -5 -1 -5 -18z"/>
<path d="M1710 1362 c0 -5 9 -12 21 -15 13 -3 19 -1 16 6 -5 15 -37 22 -37 9z"/>
<path d="M1936 1345 c-11 -8 -20 -24 -21 -35 -1 -16 4 -20 32 -20 36 0 44 21
21 53 -12 14 -15 14 -32 2z"/>
<path d="M1382 1228 l1 -63 6 49 c5 44 9 51 35 57 41 11 49 2 42 -47 -4 -34
-2 -44 8 -44 18 0 29 27 15 36 -6 3 -9 19 -5 34 6 31 -10 40 -71 40 l-33 0 2
-62z"/>
<path d="M1628 1268 c-3 -7 2 -19 9 -27 11 -11 12 -16 2 -25 -8 -8 -13 -8 -16
2 -7 18 -23 15 -23 -4 0 -15 10 -16 77 -11 42 4 77 8 79 9 1 2 4 16 6 33 3 32
-9 36 -64 21 -15 -4 -35 -3 -46 3 -15 8 -21 8 -24 -1z"/>
<path d="M1791 1263 c0 -5 4 -17 9 -28 8 -18 9 -17 9 8 1 15 -3 27 -9 27 -5 0
-10 -3 -9 -7z"/>
<path d="M1931 1254 c0 -11 3 -14 6 -6 3 7 2 16 -1 19 -3 4 -6 -2 -5 -13z"/>
<path d="M1847 1253 c-13 -12 -7 -23 13 -23 11 0 20 7 20 15 0 15 -21 21 -33
8z"/>
<path d="M990 1140 c0 -11 7 -20 15 -20 8 0 15 9 15 20 0 11 -7 20 -15 20 -8
0 -15 -9 -15 -20z"/>
<path d="M402 1455 c0 -16 2 -22 5 -12 2 9 2 23 0 30 -3 6 -5 -1 -5 -18z"/>
</g>
</svg>
